P3
3 2
120
60  0   0   0   60  0   0   0   60  
120 120 120 120 120 120 120 120 120 
