P2
3 3
120
0   0   0   
60  60  60  
120 120 120 
